
<svg xmlns="http://www.w3.org/2000/svg" version="1.1" viewBox="0 0 100 100">
 <path d="m89.949 67.617v7.7344c0 2.7852-2.2695 5.0547-5.0547 5.0547h-9.75c-2.7852 0-5.0547-2.2695-5.0547-5.0547v-7.7344h-10.16v7.7344c0 2.7852-2.2695 5.0547-5.0547 5.0547h-9.75c-2.7852 0-5.0547-2.2695-5.0547-5.0547v-7.7344h-10.16v7.7344c0 2.7852-2.2695 5.0547-5.0547 5.0547h-9.75c-2.7852 0-5.0547-2.2695-5.0547-5.0547v-7.7344h-3.5312v17.301h86.957v-17.301zm-85.891 0h-0.22266c-0.67969 0-1.2305-0.55078-1.2305-1.2305v-8.375c0-0.67969 0.55078-1.2305 1.2305-1.2305h0.22266v-18.531c0-0.67969 0.55078-1.2305 1.2305-1.2305h9.2227c0.19141-1.1719 0.74609-2.2188 1.5508-3.0234 2.1523-2.1523 5.6836-2.1523 7.8359 0 0.48828 0.48828 0.88281 1.0625 1.1602 1.6992v-6.4102c0-2.7852 2.2695-5.0547 5.0547-5.0547h9.75c2.7852 0 5.0547 2.2695 5.0547 5.0547v6.4102c0.27734-0.63672 0.67578-1.2148 1.1602-1.6992 2.1523-2.1523 5.6836-2.1523 7.8359 0 0.48828 0.48828 0.88281 1.0625 1.1602 1.6992v-6.4102c0-2.7852 2.2695-5.0547 5.0547-5.0547h9.75c2.7852 0 5.0547 2.2695 5.0547 5.0547v6.4102c0.28125-0.63672 0.67578-1.2148 1.1602-1.6992 2.1523-2.1523 5.6836-2.1523 7.8359 0 0.80469 0.80469 1.3633 1.8516 1.5508 3.0234h9.2227c0.67969 0 1.2305 0.55078 1.2305 1.2305l0.007812 18.531h0.22266c0.67969 0 1.2305 0.55078 1.2305 1.2305v8.375c0 0.67969-0.55078 1.2305-1.2305 1.2305h-0.22266v18.531c0 0.67969-0.55078 1.2305-1.2305 1.2305l-89.422 0.003906c-0.67969 0-1.2305-0.55078-1.2305-1.2305zm2.4609-10.836h3.5312v-7.7305c0-2.7852 2.2695-5.0547 5.0547-5.0547h9.75c2.7852 0 5.0547 2.2695 5.0547 5.0547v7.7305h10.16v-7.7305c0-2.7852 2.2695-5.0547 5.0547-5.0547h9.75c2.7852 0 5.0547 2.2695 5.0547 5.0547v7.7305h10.16v-7.7305c0-2.7852 2.2695-5.0547 5.0547-5.0547h9.75c2.7852 0 5.0547 2.2695 5.0547 5.0547v7.7305h3.5273l0.003907-17.301h-8.1445c-0.26563 0.90234-0.75391 1.707-1.3984 2.3516-2.1523 2.1484-5.6836 2.1484-7.8359 0-0.64453-0.64844-1.1328-1.4492-1.3984-2.3516h-19.387c-0.26562 0.90234-0.75391 1.707-1.3984 2.3516-2.1523 2.1484-5.6836 2.1484-7.8359 0-0.64453-0.64844-1.1328-1.4492-1.3984-2.3516h-19.387c-0.26562 0.90234-0.75391 1.707-1.3984 2.3516-2.1523 2.1484-5.6836 2.1484-7.8359 0-0.64844-0.64844-1.1328-1.4492-1.3984-2.3516h-8.1445zm21.004-19.762h2.5938v-3.2852c0-1.6211 2.4609-1.6211 2.4609 0v3.2852h4.8203v-3.2852c0-1.6211 2.4609-1.6211 2.4609 0v3.2852h2.5938v-7.7305c0-1.4258-1.168-2.5938-2.5938-2.5938h-9.75c-1.4258 0-2.5938 1.168-2.5938 2.5938zm30.02 0h2.5938v-3.2852c0-1.6211 2.4609-1.6211 2.4609 0v3.2852h4.8203v-3.2852c0-1.6211 2.4609-1.6211 2.4609 0v3.2852h2.5938v-7.7305c0-1.4258-1.1641-2.5938-2.5938-2.5938h-9.75c-1.4258 0-2.5898 1.168-2.5898 2.5938zm15.008 30.598h14.938v7.7344c0 1.4258-1.168 2.5898-2.5938 2.5898h-9.75c-1.4258 0-2.5938-1.1641-2.5938-2.5898zm-60.039-10.836h2.5938v-3.2852c0-1.6211 2.4609-1.6211 2.4609 0v3.2852h4.8242v-3.2852c0-1.6211 2.4609-1.6211 2.4609 0v3.2852h2.5938v-7.7305c0-1.4258-1.1641-2.5898-2.5898-2.5898l-9.75-0.003907c-1.4258 0-2.5898 1.1641-2.5898 2.5898zm30.02 0h2.5938v-3.2852c0-1.6211 2.4609-1.6211 2.4609 0v3.2852h4.8203v-3.2852c0-1.6211 2.4609-1.6211 2.4609 0v3.2852h2.5938v-7.7305c0-1.4258-1.168-2.5898-2.5938-2.5898h-9.75c-1.4258 0-2.5938 1.1641-2.5938 2.5898zm30.02 0h2.5977v-3.2852c0-1.6211 2.4609-1.6211 2.4609 0v3.2852h4.8203v-3.2852c0-1.6211 2.4609-1.6211 2.4609 0v3.2852h2.5938v-7.7305c0-1.4258-1.168-2.5898-2.5938-2.5898h-9.75c-1.4258 0-2.5938 1.1641-2.5938 2.5898zm-15.082 10.836v7.7344c0 1.4258-1.168 2.5898-2.5938 2.5898h-9.75c-1.4258 0-2.5938-1.1641-2.5938-2.5898v-7.7344zm-30.02 0v7.7344c0 1.4258-1.1641 2.5898-2.5898 2.5898l-9.7539 0.003906c-1.4258 0-2.5898-1.1641-2.5898-2.5898v-7.7344zm67.484-8.375h-0.22656-89.418-0.22266v5.9141h89.867zm-77.129-23.504c-1.207 1.2031-1.1953 3.1562 0 4.3555 1.1953 1.1953 3.1602 1.1953 4.3555 0 0.58203-0.58203 0.90234-1.3633 0.90234-2.1758 0-0.85156-0.34375-1.6211-0.90234-2.1758-1.1992-1.1992-3.1641-1.1992-4.3555-0.003907zm30.02 0c-1.207 1.207-1.1992 3.1562 0 4.3555 1.1953 1.1953 3.1562 1.1953 4.3555 0 1.1953-1.1992 1.207-3.1484 0-4.3555-1.1992-1.1953-3.1602-1.1953-4.3555 0zm30.02 0c-1.207 1.207-1.1992 3.1562 0 4.3555 1.1953 1.1953 3.1562 1.1953 4.3555 0 1.1953-1.1992 1.207-3.1484 0-4.3555-1.1992-1.1953-3.1641-1.1953-4.3555 0zm-45.031-19.762c-1.1953 1.1953-1.1953 3.1602 0 4.3555 1.1953 1.1953 3.1602 1.1953 4.3555 0 1.1953-1.1953 1.1953-3.1602 0-4.3555-1.1953-1.1953-3.1602-1.1953-4.3555 0zm-1.7422-1.7422c2.1523-2.1523 5.6836-2.1523 7.8359 0s2.1523 5.6836 0 7.8359c-2.1523 2.1523-5.6836 2.1523-7.8359 0-2.1523-2.1523-2.1523-5.6836 0-7.8359zm31.762 1.7422c-1.1953 1.1953-1.1953 3.1602 0 4.3555 1.1953 1.1953 3.1602 1.1953 4.3555 0 1.1953-1.1953 1.1953-3.1602 0-4.3555-1.1953-1.1953-3.1602-1.1953-4.3555 0zm-1.7422-1.7422c2.1523-2.1523 5.6836-2.1523 7.8359 0 2.1523 2.1523 2.1523 5.6836 0 7.8359-2.1523 2.1523-5.6836 2.1523-7.8359 0-2.1484-2.1523-2.1484-5.6836 0-7.8359z" fill-rule="evenodd"/>
</svg>