<svg aria-label="mySociety" viewBox="0 0 350 74" xmlns="http://www.w3.org/2000/svg">
<path d="m0.31316 27.78c0-4.4701-0.07829-8.221-0.31316-11.576h8.3125l0.39145 5.7512h0.23487c1.8836-3.034 5.3329-6.6277 11.766-6.6277 5.0197 0 8.9342 2.8768 10.583 7.185h0.1565c1.3356-2.1576 2.9014-3.7555 4.7043-4.8701 2.1184-1.5193 4.5454-2.3172 7.6839-2.3172 6.3507 0 12.78 4.3892 12.78 16.844v22.908h-9.4086v-21.472c0-6.468-2.1921-10.298-6.8226-10.298-3.2928 0-5.7221 2.3934-6.7399 5.1869-0.2371 0.9574-0.4697 2.1553-0.4697 3.2722v23.31h-9.4131v-22.51c0-5.4297-2.1185-9.2615-6.5856-9.2615-3.6059 0-6.0375 2.8721-6.901 5.5847-0.39141 0.9597-0.54568 2.0766-0.54568 3.1958v22.986h-9.4132v-27.292zm71.276-11.576 6.8987 20.836c0.7829 2.3958 1.5727 5.3511 2.1184 7.585h0.2372c0.6217-2.2339 1.3309-5.1106 2.0355-7.6613l5.9592-20.757h10.353l-9.5675 26.501c-5.2546 14.529-8.7822 20.99-13.332 24.984-3.7648 3.4341-7.6862 4.7129-10.118 5.0343l-2.1944-8.3111c1.6464-0.3978 3.6842-1.2719 5.6461-2.7103 1.8029-1.1955 3.919-3.515 5.25-6.1466 0.3914-0.7238 0.6286-1.2765 0.6286-1.7575 0-0.4001-0.0783-0.9574-0.5526-1.9147l-13.954-35.682h10.592zm33.324 28.178c3.136 1.8361 7.84 3.4341 12.779 3.4341 6.194 0 9.648-2.9531 9.648-7.3399 0-4.0746-2.671-6.4704-9.411-8.9448-8.704-3.1912-14.276-7.9018-14.276-15.646 0-8.7829 7.219-15.487 18.667-15.487 5.725 0 9.959 1.2765 12.704 2.7126l-2.356 7.9018c-1.883-1.036-5.567-2.5553-10.506-2.5553-6.119 0-8.785 3.3531-8.785 6.4681 0 4.1509 3.058 6.0657 10.115 8.8615 9.174 3.515 13.644 8.2232 13.644 15.966 0 8.6256-6.432 16.206-20.073 16.206-5.567 0-11.368-1.6743-14.271-3.4295l2.118-8.1469h3e-3zm113.3 9.4997c-2.033 0.9551-6.033 2.0744-10.818 2.0744-11.918 0-19.683-7.8232-19.683-19.876 0-11.655 7.838-20.755 21.254-20.755 3.527 0 7.131 0.8002 9.325 1.8385l-1.72 7.3422c-1.566-0.7169-3.845-1.517-7.292-1.517-7.369 0-11.767 5.5107-11.684 12.615 0 7.9828 5.096 12.534 11.684 12.534 3.368 0 5.726-0.7215 7.605-1.5193l1.324 7.2682 5e-3 -0.0047zm7.14-37.678h9.722v38.873h-9.722v-38.873zm10.27-10.855c0 2.9531-2.118 5.2725-5.487 5.2725-3.217 0-5.335-2.3194-5.335-5.2725 0-3.0363 2.196-5.3488 5.411-5.3488 3.293 0 5.335 2.3125 5.411 5.3488zm16.62 33.048c0.238 7.0253 5.649 10.059 11.767 10.059 4.467 0 7.682-0.6405 10.585-1.7621l1.412 6.7895c-3.298 1.3551-7.841 2.4744-13.333 2.4744-12.388 0-19.678-7.8255-19.678-19.716 0-10.776 6.429-20.917 18.661-20.917 12.468 0 16.468 10.378 16.468 18.923 0 1.8338-0.154 3.2722-0.311 4.1487h-25.571zm16.787-6.8636c0.078-3.5936-1.492-9.4997-7.921-9.4997-5.964 0-8.474 5.5037-8.866 9.4997h16.787zm27.908-25.308v9.9784h9.178v7.3468h-9.178v17.159c0 4.7128 1.254 7.1918 4.939 7.1918 1.803 0 2.662-0.1618 3.764-0.4856l0.157 7.5087c-1.414 0.555-3.924 1.0406-6.977 1.0406-3.532 0-6.512-1.2811-8.312-3.2745-2.041-2.2339-2.98-5.7512-2.98-10.857v-18.283h-5.492v-7.3445h5.49v-7.1826l9.404-2.7981h7e-3zm23.051 9.9784 6.908 20.836c0.783 2.3958 1.561 5.3511 2.114 7.585h0.23c0.633-2.2339 1.34-5.1106 2.04-7.6613l5.96-20.757h10.348l-9.566 26.501c-5.254 14.529-8.779 20.998-13.332 24.989-3.762 3.4341-7.686 4.7083-10.108 5.0297l-2.202-8.3065c1.647-0.3977 3.689-1.2788 5.646-2.7149 1.803-1.1955 3.922-3.515 5.255-6.142 0.396-0.7238 0.629-1.2811 0.629-1.7575 0-0.4-0.083-0.962-0.553-1.9193l-13.954-35.682h10.583" clip-rule="evenodd" fill="#333" fill-rule="evenodd"/>
<path d="m161.6 13.731c2.712 0 4.914 2.2385 4.914 5.002 0 2.7634-2.202 5.0042-4.917 5.0042-2.717 0-4.913-2.2431-4.913-5.0019 0-2.7611 2.199-4.9996 4.911-4.9996" clip-rule="evenodd" fill="#ED1C24" fill-rule="evenodd"/>
<path d="m161.6 47.145c2.712 0 4.914 2.2431 4.914 5.0042 0 2.7635-2.202 5.0043-4.917 5.0043-2.717 0-4.913-2.2432-4.913-5.002s2.199-5.0019 4.911-5.0019" clip-rule="evenodd" fill="#29ABE2" fill-rule="evenodd"/>
<path d="m173.34 18.761c2.71 0 4.914 2.2385 4.914 4.9996 0 2.7635-2.201 5.002-4.911 5.002-2.718 0-4.914-2.2385-4.914-5.002 0-2.7611 2.201-4.9996 4.914-4.9996" clip-rule="evenodd" fill="#F8931E" fill-rule="evenodd"/>
<path d="m153.29 50.697c-1.939 1.9193-5.052 1.8893-6.947-0.0833-1.898-1.9772-1.858-5.143 0.083-7.0716 1.941-1.9356 5.049-1.8963 6.947 0.0763 1.895 1.9726 1.86 5.1338-0.081 7.0763" clip-rule="evenodd" fill="#662D91" fill-rule="evenodd"/>
<path d="m178.01 30.298c2.71 0 4.914 2.2385 4.914 5.0019 0 2.7565-2.204 4.995-4.914 4.995s-4.909-2.2361-4.909-4.995c0-2.7634 2.199-5.0019 4.909-5.0019z" clip-rule="evenodd" fill="#FCEE21" fill-rule="evenodd"/>
<path d="m145.19 30.578c2.717 0 4.914 2.2431 4.914 5.0019 0 2.7635-2.199 5.0043-4.914 5.0043-2.717 0-4.914-2.2432-4.914-5.0043s2.197-5.0019 4.912-5.0019" clip-rule="evenodd" fill="#93278F" fill-rule="evenodd"/>
<path d="m169.73 50.792c-1.916-1.9586-1.916-5.1198 0-7.0762 1.92-1.9494 5.031-1.9494 6.949 0 1.918 1.9564 1.918 5.1176 0 7.0762-1.92 1.9495-5.029 1.9495-6.947 0" clip-rule="evenodd" fill="#8CC63F" fill-rule="evenodd"/>
</svg>
