<?xml version="1.0" encoding="utf-8"?>
<!-- Generator: Adobe Illustrator 17.0.0, SVG Export Plug-In . SVG Version: 6.00 Build 0)  -->
<!DOCTYPE svg PUBLIC "-//W3C//DTD SVG 1.1//EN" "http://www.w3.org/Graphics/SVG/1.1/DTD/svg11.dtd">
<svg version="1.1" id="Layer_1" xmlns="http://www.w3.org/2000/svg" xmlns:xlink="http://www.w3.org/1999/xlink" x="0px" y="0px"
	 width="256px" height="256px" viewBox="0 0 256 256" enable-background="new 0 0 256 256" xml:space="preserve">
<rect fill="#88A465" width="256" height="256"/>
<path fill="#F2F2F2" d="M128,35.262c-51.219,0.006-92.727,41.517-92.736,92.739c0.009,51.216,41.517,92.727,92.736,92.736
	c51.222-0.01,92.73-41.52,92.736-92.736C220.73,76.779,179.222,35.269,128,35.262z M166.097,114.171
	c1.296,11.099-3.607,15.999-14.7,14.7C141.929,118.622,155.845,104.706,166.097,114.171z M179.923,181.775
	c-0.83-25.026-1.594-48.429,0.876-74.957c-4.426-5.374-9.56-10.037-12.256-17.147c1.783-12.399-6.724-14.507-7.347-24.497
	c0.104-2.608-1.154-6.225-2.447-2.45c1.622,11.634-5.994,15.487-7.35,22.05c-0.797,3.835,1.119,8.51,0,12.25
	c-1.005,3.357-3.632,4.277-4.9,7.35c-6.964,16.884,6.338,35.236-2.45,53.9c-5.801-4.015-10.404,0.547-14.7,0
	c-0.721-0.089-0.18-4.571-2.447-4.9c-0.266-0.038-2.276,4.404-4.9,2.45c-1.129-8.608,2.554-37.205-2.45-31.853
	c0.506,7.04-0.623,12.446-4.9,14.7c-6.095-3.705,1.502-21.102-4.9-24.5c-1.834,11.235,0.487,26.628-14.7,24.5
	c-0.291-4.072,1.34-22.189-2.45-14.7c-2.557,11.327,6.379,34.145-7.35,34.3c-1.549-8.248,3.161-22.755-2.447-26.947
	c-0.041,6.496,1.359,14.422-4.9,14.697c-1.935-9.945,2.624-17.068-4.903-17.15c-1.78,5.564,4.413,19.116-4.9,17.15
	c-6.651,1.751,1.755-11.551-4.9-9.8v29.077c-6.338-10.978-9.991-23.705-10.015-37.296C53.261,86.687,86.685,53.263,128,53.184
	c41.315,0.079,74.742,33.503,74.812,74.818C202.776,149.128,194.002,168.178,179.923,181.775z"/>
</svg>
