<svg width="69" height="70" viewBox="0 0 69 70" xmlns="http://www.w3.org/2000/svg"><g fill="none" fill-rule="evenodd"><path d="M5.446 0h62.836v62.836H5.446z"/><g fill="#E2DFD9" fill-rule="nonzero"><path d="M26.156 21.053a.982.982 0 011.839-.69c1.33 3.55 4.378 7.725 9.147 12.495 4.77 4.77 8.945 7.816 12.494 9.147a.982.982 0 01-.69 1.839c-3.855-1.446-8.242-4.648-13.192-9.598-4.95-4.95-8.152-9.337-9.598-13.193z"/><path d="M14.246 55.754l34.166-13.537c.099-2.197-2.702-6.345-8.493-12.136-5.791-5.791-9.94-8.592-12.136-8.493L14.246 55.754zm12.571-35.993c3.042-.83 7.745 2.186 14.49 8.931 6.746 6.746 9.761 11.45 8.932 14.49a.982.982 0 01-.586.655l-36.795 14.58c-.8.316-1.591-.476-1.274-1.275l14.579-36.795a.982.982 0 01.654-.586z"/></g><path d="M59.748 15.898a.982.982 0 11.257 1.947 19.76 19.76 0 00-8.6 3.302.982.982 0 11-1.112-1.62 21.724 21.724 0 019.455-3.629zM52.384 31.607a.982.982 0 11.257 1.947 19.76 19.76 0 00-8.6 3.302.982.982 0 11-1.111-1.62 21.724 21.724 0 019.454-3.629zM34.852 25.686a.982.982 0 01-1.506-1.26A27.616 27.616 0 0039.81 6.627a.982.982 0 011.964 0 29.579 29.579 0 01-6.921 19.06zM19.967 55.456l-1.78-.83a10.755 10.755 0 001.004-4.554c0-2.262-.695-4.416-1.972-6.224l1.604-1.133a12.708 12.708 0 012.332 7.357c0 1.884-.409 3.712-1.188 5.384zM25.84 53.027l-1.776-.835a15.888 15.888 0 001.51-6.783c0-4.132-1.576-8.013-4.357-10.956l1.427-1.349a17.856 17.856 0 014.893 12.305c0 2.668-.584 5.255-1.696 7.618zM30.265 51.439l-1.589-1.154a20.762 20.762 0 003.966-12.24c0-3.928-1.086-7.694-3.108-10.961l1.67-1.033a22.722 22.722 0 013.402 11.994c0 4.878-1.535 9.528-4.34 13.394zM38.91 47.999l-1.674-1.027a20.73 20.73 0 002.994-9.16l1.957.16A22.693 22.693 0 0138.91 48zM29.143 32.697a.982.982 0 11-1.758.876 20.74 20.74 0 00-3.42-4.925.982.982 0 111.434-1.341 22.704 22.704 0 013.744 5.39z" fill="#E2DFD9" fill-rule="nonzero"/><circle fill="#E2DFD9" fill-rule="nonzero" cx="29.5" cy="36.572" r="1"/><path d="M31.219 15.709a3.19 3.19 0 110-6.382 3.19 3.19 0 010 6.382zm0-1.964a1.227 1.227 0 100-2.454 1.227 1.227 0 000 2.454zM51.346 11.782a3.19 3.19 0 110-6.382 3.19 3.19 0 010 6.382zm0-1.964a1.227 1.227 0 100-2.454 1.227 1.227 0 000 2.454zM58.218 29.945a3.19 3.19 0 110-6.382 3.19 3.19 0 010 6.382zm0-1.963a1.227 1.227 0 100-2.455 1.227 1.227 0 000 2.455zM43.737 21.6a.982.982 0 011.963 0v3.927a.982.982 0 01-1.963 0V21.6z" fill="#E2DFD9" fill-rule="nonzero"/><path d="M42.755 24.545a.982.982 0 010-1.963h3.927a.982.982 0 010 1.963h-3.927zM54.537 48.6a.982.982 0 011.963 0v3.927a.982.982 0 01-1.963 0V48.6z" fill="#E2DFD9" fill-rule="nonzero"/><path d="M53.555 51.545a.982.982 0 010-1.964h3.927a.982.982 0 010 1.964h-3.927zM19.191 11.29a.982.982 0 011.964 0v3.928a.982.982 0 11-1.964 0v-3.927z" fill="#E2DFD9" fill-rule="nonzero"/><path d="M18.21 14.236a.982.982 0 110-1.963h3.927a.982.982 0 010 1.963H18.21z" fill="#E2DFD9" fill-rule="nonzero"/><circle fill="#E2DFD9" fill-rule="nonzero" cx="56.5" cy="36.818" r="1"/><circle fill="#E2DFD9" fill-rule="nonzero" cx="59.936" cy="44.672" r="1"/><circle fill="#E2DFD9" fill-rule="nonzero" cx="45.7" cy="14.727" r="1"/><circle fill="#E2DFD9" fill-rule="nonzero" cx="63.373" cy="17.182" r="1"/><circle fill="#E2DFD9" fill-rule="nonzero" cx="25.082" cy="7.854" r="1"/></g></svg>