<svg width="54" height="32" viewBox="0 0 54 32" xmlns="http://www.w3.org/2000/svg"><g fill="#E2DFD9" fill-rule="nonzero"><path d="M0 16C0 7.163 7.17 0 16 0h22c8.836 0 16 7.162 16 16 0 8.837-7.17 16-16 16H16C7.165 32 0 24.838 0 16zm37 14c7.732 0 14-6.268 14-14S44.732 2 37 2 23 8.268 23 16s6.268 14 14 14z"/><path d="M46.313 10.8L34.588 22.686a1.01 1.01 0 01-1.463 0l-4.829-4.946a1.08 1.08 0 010-1.486 1.01 1.01 0 011.463 0l4.11 4.203L44.872 9.313a1.01 1.01 0 011.463 0 1.058 1.058 0 01-.023 1.486z"/></g></svg>