<svg width="38" height="55" viewBox="0 0 38 55" xmlns="http://www.w3.org/2000/svg"><path d="M31.43 5.145a6.821 6.821 0 00-6.736 5.77 6.808 6.808 0 004.674 7.527l-.708 1.67a11.912 11.912 0 01-9.79 7.131h-.257A14.433 14.433 0 008.115 33.41V13.496a6.812 6.812 0 005.508-7.332A6.82 6.82 0 006.827 0 6.82 6.82 0 00.031 6.164a6.812 6.812 0 005.508 7.332v28.008a6.812 6.812 0 00-5.508 7.332A6.82 6.82 0 006.827 55a6.82 6.82 0 006.796-6.164 6.812 6.812 0 00-5.508-7.332c.04-6.075 4.69-11.13 10.756-11.691h.257a14.487 14.487 0 0011.915-8.737l1.03-2.377a6.814 6.814 0 005.92-7.072c-.169-3.533-3.02-6.35-6.564-6.482zM2.575 6.88a4.245 4.245 0 014.251-4.24 4.245 4.245 0 014.25 4.24 4.245 4.245 0 01-4.25 4.24 4.245 4.245 0 01-4.25-4.24zm8.502 41.24a4.245 4.245 0 01-4.25 4.24 4.245 4.245 0 01-4.252-4.24 4.245 4.245 0 014.251-4.24 4.245 4.245 0 014.25 4.24zm20.351-31.926a4.245 4.245 0 01-4.25-4.24 4.245 4.245 0 014.25-4.24 4.245 4.245 0 014.25 4.24 4.234 4.234 0 01-1.244 2.998 4.256 4.256 0 01-3.006 1.242z" fill="#E2DFD9" fill-rule="nonzero"/></svg>